<svg xmlns="http://www.w3.org/2000/svg" width="1200" height="800" viewBox="0 0 1200 800" role="img" aria-labelledby="title desc">
  <title id="title">Close-up weld seam inspection</title>
  <desc id="desc">A close-up illustration of a finished weld seam with inspection markers and compliance tags.</desc>
  <defs>
    <linearGradient id="plate" x1="0" x2="1" y1="0" y2="1">
      <stop stop-color="#f8fafc"/>
      <stop offset="1" stop-color="#cbd5e1"/>
    </linearGradient>
    <linearGradient id="weld" x1="0" x2="1">
      <stop stop-color="#475569"/>
      <stop offset=".5" stop-color="#94a3b8"/>
      <stop offset="1" stop-color="#334155"/>
    </linearGradient>
  </defs>
  <rect width="1200" height="800" rx="44" fill="#ffffff"/>
  <rect x="96" y="128" width="1008" height="510" rx="36" fill="url(#plate)" stroke="#e2e8f0" stroke-width="3"/>
  <path d="M150 400h900" stroke="#94a3b8" stroke-width="4" stroke-dasharray="14 14"/>
  <path d="M170 402c62-50 118-50 180 0s118 50 180 0 118-50 180 0 118 50 180 0 118-50 180 0" fill="none" stroke="url(#weld)" stroke-width="66" stroke-linecap="round"/>
  <path d="M170 402c62-50 118-50 180 0s118 50 180 0 118-50 180 0 118 50 180 0 118-50 180 0" fill="none" stroke="#e2e8f0" stroke-width="8" stroke-linecap="round" opacity=".5"/>
  <g fill="#eff6ff" stroke="#2563eb" stroke-width="4">
    <rect x="176" y="210" width="166" height="74" rx="20"/>
    <rect x="802" y="496" width="188" height="74" rx="20"/>
  </g>
  <text x="214" y="256" font-family="Inter,Arial,sans-serif" font-size="25" font-weight="900" fill="#2563eb">VT OK</text>
  <text x="840" y="542" font-family="Inter,Arial,sans-serif" font-size="25" font-weight="900" fill="#2563eb">W-1056</text>
  <path d="M342 246l154 98M802 534l-154-98" stroke="#2563eb" stroke-width="4"/>
  <circle cx="500" cy="346" r="12" fill="#2563eb"/>
  <circle cx="648" cy="436" r="12" fill="#2563eb"/>
  <g transform="translate(432 644)">
    <rect width="336" height="72" rx="22" fill="#f8fafc" stroke="#e2e8f0"/>
    <circle cx="42" cy="36" r="13" fill="#16a34a"/>
    <text x="68" y="43" font-family="Inter,Arial,sans-serif" font-size="22" font-weight="900" fill="#1e293b">Audit-ready weld evidence</text>
  </g>
</svg>
