<svg xmlns="http://www.w3.org/2000/svg" width="1200" height="700" viewBox="0 0 1200 700">
<defs>
  <linearGradient id="bg" x1="0" y1="0" x2="1" y2="1">
    <stop offset="0" stop-color="#eaf1ff"/><stop offset="1" stop-color="#f8fbff"/>
  </linearGradient>
  <linearGradient id="acc" x1="0" y1="0" x2="1" y2="1">
    <stop offset="0" stop-color="#1f5bd6" stop-opacity=".85"/><stop offset="1" stop-color="#f59e0b" stop-opacity=".70"/>
  </linearGradient>
</defs>
<rect x="0" y="0" width="1200" height="700" rx="36" fill="url(#bg)"/>
<rect x="80" y="90" width="1040" height="520" rx="28" fill="#fff" stroke="#e6edf7" stroke-width="8"/>
<rect x="120" y="140" width="260" height="34" rx="14" fill="rgba(31,91,214,.12)"/>
<rect x="120" y="196" width="520" height="18" rx="9" fill="rgba(15,27,45,.10)"/>
<rect x="120" y="240" width="820" height="290" rx="20" fill="rgba(31,91,214,.06)"/>
<rect x="160" y="280" width="740" height="36" rx="16" fill="#fff" stroke="#e6edf7" stroke-width="6"/>
<rect x="160" y="340" width="740" height="36" rx="16" fill="#fff" stroke="#e6edf7" stroke-width="6"/>
<rect x="160" y="400" width="740" height="36" rx="16" fill="#fff" stroke="#e6edf7" stroke-width="6"/>
<circle cx="980" cy="280" r="12" fill="url(#acc)"/>
<circle cx="980" cy="340" r="12" fill="rgba(245,158,11,.75)"/>
<circle cx="980" cy="400" r="12" fill="rgba(31,91,214,.75)"/>
<rect x="760" y="140" width="320" height="54" rx="18" fill="url(#acc)" opacity=".95"/>
</svg>