<svg xmlns="http://www.w3.org/2000/svg" width="980" height="560" viewBox="0 0 980 560" fill="none">
<defs>
  <linearGradient id="g" x1="120" y1="40" x2="860" y2="520" gradientUnits="userSpaceOnUse">
    <stop stop-color="#2F7BFF"/><stop offset="1" stop-color="#39D6B5"/>
  </linearGradient>
  <filter id="sh" x="-45%" y="-45%" width="190%" height="190%">
    <feDropShadow dx="0" dy="18" stdDeviation="22" flood-color="#0b1a3a" flood-opacity="0.18"/>
  </filter>
</defs>
<rect x="30" y="30" width="920" height="500" rx="30" fill="url(#g)" opacity="0.08"/>
<rect x="90" y="90" width="800" height="380" rx="26" fill="#FFFFFF" stroke="#E7EEFC" filter="url(#sh)"/>

<!-- topbar -->
<rect x="120" y="120" width="740" height="52" rx="18" fill="#F6F8FF" stroke="#E7EEFC"/>
<circle cx="150" cy="146" r="10" fill="#2F7BFF" opacity="0.6"/>
<rect x="170" y="134" width="180" height="24" rx="12" fill="#EEF4FF"/>
<rect x="700" y="134" width="140" height="24" rx="12" fill="#F2FBF8"/>

<!-- sidebar -->
<rect x="120" y="184" width="200" height="256" rx="18" fill="#FFFFFF" stroke="#E7EEFC"/>
<rect x="140" y="208" width="160" height="36" rx="14" fill="#EEF4FF"/>
<rect x="140" y="254" width="160" height="36" rx="14" fill="#FFFFFF" stroke="#E7EEFC"/>
<rect x="140" y="300" width="160" height="36" rx="14" fill="#FFFFFF" stroke="#E7EEFC"/>
<rect x="140" y="346" width="160" height="36" rx="14" fill="#FFFFFF" stroke="#E7EEFC"/>

<!-- main table -->
<rect x="334" y="184" width="526" height="256" rx="18" fill="#FFFFFF" stroke="#E7EEFC"/>
<rect x="360" y="210" width="474" height="24" rx="12" fill="#F6F8FF"/>
<rect x="360" y="250" width="474" height="14" rx="7" fill="#F1F4FB"/>
<rect x="360" y="278" width="474" height="14" rx="7" fill="#F1F4FB"/>
<rect x="360" y="306" width="474" height="14" rx="7" fill="#F1F4FB"/>
<rect x="360" y="334" width="474" height="14" rx="7" fill="#F1F4FB"/>

<!-- status pills -->
<rect x="360" y="372" width="110" height="22" rx="11" fill="#EAF6F2"/>
<rect x="484" y="372" width="110" height="22" rx="11" fill="#EEF4FF"/>
<rect x="608" y="372" width="110" height="22" rx="11" fill="#F3F6FB"/>
<path d="M372 383h56" stroke="#39D6B5" stroke-width="5" stroke-linecap="round" opacity="0.65"/>
<path d="M496 383h56" stroke="#2F7BFF" stroke-width="5" stroke-linecap="round" opacity="0.55"/>
<path d="M620 383h56" stroke="#7783A0" stroke-width="5" stroke-linecap="round" opacity="0.45"/>
</svg>
