<svg xmlns="http://www.w3.org/2000/svg" width="980" height="620" viewBox="0 0 980 620" role="img" aria-label="Pricing and onboarding">
<defs><linearGradient id="bg" x1="0" y1="0" x2="1" y2="1"><stop stop-color="#f8fbff"/><stop offset="1" stop-color="#eaf3ff"/></linearGradient><filter id="s"><feDropShadow dx="0" dy="22" stdDeviation="22" flood-color="#0f172a" flood-opacity=".14"/></filter></defs>
<rect width="980" height="620" rx="34" fill="url(#bg)"/>
<rect x="32" y="32" width="916" height="556" rx="28" fill="#fff" filter="url(#s)"/>
<rect x="56" y="56" width="174" height="508" rx="22" fill="#071426"/>
<text x="84" y="104" fill="#fff" font-size="28" font-weight="900">W</text>
<rect x="76" y="136" width="132" height="38" rx="12" fill="#0ea5e9"/><text x="90" y="161" fill="#fff" font-size="13" font-weight="800">Projects</text><rect x="76" y="194" width="132" height="38" rx="12" fill="transparent"/><text x="90" y="219" fill="#b8c7dc" font-size="13" font-weight="800">Welds</text><rect x="76" y="252" width="132" height="38" rx="12" fill="transparent"/><text x="90" y="277" fill="#b8c7dc" font-size="13" font-weight="800">Inspections</text><rect x="76" y="310" width="132" height="38" rx="12" fill="transparent"/><text x="90" y="335" fill="#b8c7dc" font-size="13" font-weight="800">WPS/WPQ</text><rect x="76" y="368" width="132" height="38" rx="12" fill="transparent"/><text x="90" y="393" fill="#b8c7dc" font-size="13" font-weight="800">Documents</text><rect x="76" y="426" width="132" height="38" rx="12" fill="transparent"/><text x="90" y="451" fill="#b8c7dc" font-size="13" font-weight="800">CE dossier</text>
<text x="270" y="92" fill="#071426" font-size="32" font-weight="950">Pricing and onboarding</text>
<text x="270" y="124" fill="#64748b" font-size="16" font-weight="700">Trial, demo, checkout and implementation routes</text>
<rect x="270" y="160" width="178" height="92" rx="18" fill="#fff" stroke="#dbe7fb"/><text x="292" y="203" fill="#071426" font-size="30" font-weight="950">24</text><text x="292" y="228" fill="#64748b" font-size="13" font-weight="800">Projects</text>
<rect x="470" y="160" width="178" height="92" rx="18" fill="#fff" stroke="#dbe7fb"/><text x="492" y="203" fill="#071426" font-size="30" font-weight="950">318</text><text x="492" y="228" fill="#64748b" font-size="13" font-weight="800">Inspections</text>
<rect x="670" y="160" width="228" height="92" rx="18" fill="#eff6ff" stroke="#bfdbfe"/><text x="692" y="203" fill="#0ea5e9" font-size="30" font-weight="950">86%</text><text x="692" y="228" fill="#1e3a8a" font-size="13" font-weight="800">Dossier readiness</text>
<rect x="270" y="296" width="628" height="54" rx="16" fill="#fff" stroke="#e6eefc"/><circle cx="296" cy="323" r="9" fill="#0ea5e9"/><text x="318" y="318" fill="#071426" font-size="15" font-weight="900">Project scope</text><text x="318" y="338" fill="#64748b" font-size="13" font-weight="700">Requirements, team and schedule</text><rect x="270" y="368" width="628" height="54" rx="16" fill="#fff" stroke="#e6eefc"/><circle cx="296" cy="395" r="9" fill="#0ea5e9"/><text x="318" y="390" fill="#071426" font-size="15" font-weight="900">Weld context</text><text x="318" y="410" fill="#64748b" font-size="13" font-weight="700">Status, WPS/WPQ and evidence</text><rect x="270" y="440" width="628" height="54" rx="16" fill="#fff" stroke="#e6eefc"/><circle cx="296" cy="467" r="9" fill="#0ea5e9"/><text x="318" y="462" fill="#071426" font-size="15" font-weight="900">Dossier status</text><text x="318" y="482" fill="#64748b" font-size="13" font-weight="700">Missing items and handover</text>
</svg>